# 3ds Max Wavefront OBJ Exporter v0.97b - (c)2007 guruware
# File Created: 26.11.2017 00:47:46

mtllib tripsm.mtl

#
# object Shape1
#

v  -299.1392 0.0000 -491.3896
v  -299.1392 0.0000 -94.2499
v  -299.1392 400.0000 -480.5254
v  -299.1392 400.0000 -491.3896
v  100.2007 0.0000 -491.3896
v  100.2007 400.0000 -491.3896
v  100.2007 400.0000 -480.5254
v  100.2007 0.0000 -94.2499
# 8 vertices

vn -0.5870 -0.5704 -0.5745
vn -0.4451 -0.0243 0.8951
vn -0.5870 0.5704 0.5745
vn -0.0136 0.0271 -0.9995
vn 0.3408 -0.6624 -0.6672
vn 0.0272 0.0271 -0.9993
vn 0.3408 0.6624 0.6672
vn 0.7050 -0.0193 0.7089
# 8 vertex normals

vt -0.3336 -0.2065 0.0000
vt 0.1671 -0.6752 0.0000
vt 0.1517 0.2631 0.0000
vt 0.9002 1.0705 0.0000
vt 0.9006 1.8433 0.0000
vt 0.8932 1.8339 0.0000
vt 0.1343 1.0693 0.0000
vt 0.1322 1.8353 0.0000
vt 0.8255 0.2741 0.0000
vt 0.8298 -0.6531 0.0000
vt 1.3042 -0.1797 0.0000
vt 0.1246 1.8467 0.0000
vt 0.8999 0.3084 0.0000
vt 0.1344 0.3083 0.0000
# 14 texture coords

g Shape1
usemtl Material1
s 1
f 1/1/1 2/2/2 3/3/3 
f 1/4/1 3/5/3 4/6/4 
f 5/7/5 1/4/1 4/6/4 
f 5/7/5 4/6/4 6/8/6 
f 7/9/7 8/10/8 5/11/5 
f 6/8/6 7/12/7 5/7/5 
f 7/9/7 3/3/3 2/2/2 
f 7/9/7 2/2/2 8/10/8 
f 1/4/1 5/7/5 2/13/2 
f 5/7/5 8/14/8 2/13/2 
f 4/6/4 7/12/7 6/8/6 
f 3/5/3 7/12/7 4/6/4 
# 0 polygons - 12 triangles

